<?xml version="1.0" standalone="no"?>
<!DOCTYPE svg PUBLIC "-//W3C//DTD SVG 20010904//EN"
 "http://www.w3.org/TR/2001/REC-SVG-20010904/DTD/svg10.dtd">
<svg version="1.0" xmlns="http://www.w3.org/2000/svg"
 width="827.000000pt" height="827.000000pt" viewBox="0 0 827.000000 827.000000"
 preserveAspectRatio="xMidYMid meet">
<metadata>
Created by potrace 1.11, written by Peter Selinger 2001-2013
</metadata>
<g transform="translate(0.000000,827.000000) scale(0.100000,-0.100000)"
fill="#000000" stroke="none">
<path d="M3647 8235 c-380 -45 -819 -159 -1132 -295 -757 -330 -1342 -808
-1784 -1460 -366 -540 -619 -1192 -710 -1828 -19 -126 -21 -192 -21 -550 0
-357 3 -424 21 -547 83 -572 303 -1134 642 -1640 435 -650 1053 -1192 1729
-1514 384 -183 861 -327 1277 -385 173 -25 620 -22 788 4 70 11 227 33 348 50
263 37 409 68 570 121 441 148 867 364 1215 618 801 584 1389 1491 1575 2435
34 171 64 421 70 581 3 72 8 159 10 195 12 189 -28 665 -79 936 -125 664 -414
1280 -871 1857 -119 150 -441 470 -590 585 -664 516 -1429 790 -2370 852 -238
15 -467 10 -688 -15z m-998 -2182 c6 -21 58 -234 117 -473 186 -761 209 -850
219 -851 5 0 30 82 56 183 26 101 101 399 168 663 67 264 124 488 127 498 5
16 37 17 527 15 l522 -3 9 -1198 c5 -686 5 -1202 0 -1207 -5 -5 -164 -10 -354
-12 l-345 -3 -10 720 c-5 396 -13 716 -17 710 -3 -5 -61 -212 -128 -460 -200
-738 -258 -947 -267 -956 -23 -23 -137 -31 -336 -26 -115 3 -211 8 -214 11 -3
3 -93 324 -200 713 -107 389 -197 710 -199 712 -2 2 -6 2 -8 0 -2 -2 -8 -321
-12 -709 l-9 -705 -338 -8 c-185 -5 -344 -6 -352 -3 -13 5 -15 155 -15 1209 0
662 3 1207 7 1210 3 4 239 7 524 7 l518 0 10 -37z m2910 -353 c97 -212 183
-400 190 -417 7 -18 19 -33 25 -33 7 0 32 42 56 93 24 50 91 189 148 307 57
118 128 266 158 328 l53 112 405 0 c396 0 406 0 406 -19 0 -11 -60 -125 -133
-253 -74 -128 -265 -463 -425 -745 l-292 -512 0 -440 c0 -242 -3 -442 -7 -444
-5 -3 -172 -6 -373 -8 l-365 -4 -17 65 c-22 86 -22 170 2 384 22 194 25 346
10 413 -6 23 -57 127 -114 230 -414 752 -535 965 -605 1073 -80 122 -127 221
-117 247 5 11 78 13 412 11 l406 -3 177 -385z m896 -2361 l10 -144 115 -5 115
-5 8 -80 c13 -138 21 -128 -118 -140 l-120 -10 -8 -70 c-5 -38 -6 -158 -4
-265 3 -151 8 -205 21 -241 28 -75 44 -84 146 -82 104 2 99 8 107 -123 l6 -91
-40 -15 c-106 -43 -263 -49 -337 -13 -86 41 -141 125 -177 267 -18 70 -22 125
-28 358 l-6 275 -95 5 -95 5 -8 75 c-4 41 -6 89 -5 105 l3 30 100 10 100 10 3
102 3 103 137 44 c75 24 142 43 147 42 6 -1 15 -67 20 -147z m-4153 -149 c20
-6 47 -23 59 -38 19 -24 21 -35 16 -111 -4 -46 -10 -88 -14 -92 -4 -4 -39 -1
-78 8 -38 8 -108 16 -155 16 -70 1 -93 -3 -127 -21 -66 -34 -82 -81 -40 -119
29 -27 109 -67 208 -103 104 -39 132 -54 180 -97 52 -47 76 -95 91 -183 47
-273 -188 -416 -623 -380 -74 7 -142 16 -151 21 -16 8 -18 25 -18 124 0 62 4
116 9 119 4 3 47 -6 94 -19 208 -60 316 -47 354 42 37 89 -21 141 -216 197
-52 15 -112 36 -133 47 -103 52 -154 217 -114 367 29 108 81 155 229 209 92
33 92 33 242 29 83 -2 167 -9 187 -16z m1027 5 c346 -82 526 -526 358 -880
-85 -177 -217 -258 -422 -259 -120 -1 -193 19 -260 70 -26 19 -48 34 -50 32
-1 -2 -7 -118 -11 -258 l-9 -255 -133 -9 c-78 -5 -137 -5 -142 0 -4 5 -11 352
-15 771 -6 644 -5 763 6 768 8 2 70 6 139 7 l125 3 9 -57 c4 -32 13 -58 19
-58 6 0 22 11 36 24 15 14 64 45 111 70 96 51 131 56 239 31z m1180 4 c313
-50 520 -282 521 -581 0 -104 -15 -168 -60 -263 -141 -294 -546 -410 -837
-239 -74 43 -168 145 -208 227 -49 100 -65 166 -65 277 0 205 79 370 221 461
27 17 98 53 157 80 117 53 153 58 271 38z m1382 -19 c4 -14 7 -80 8 -146 1
-138 1 -138 -71 -122 -96 22 -196 -20 -238 -102 -47 -91 -53 -148 -54 -445
l-1 -280 -128 -9 c-70 -4 -133 -6 -141 -3 -11 4 -15 106 -21 547 -4 304 -4
545 1 550 5 5 63 10 129 12 l120 3 9 -87 c4 -49 12 -88 16 -88 4 0 13 13 19
29 17 39 74 92 146 135 55 33 66 36 130 33 64 -2 70 -4 76 -27z"/>
<path d="M3114 2952 c-37 -24 -83 -81 -114 -142 -73 -143 -65 -333 18 -432 96
-113 195 -116 302 -8 66 66 90 123 97 236 13 187 -86 342 -228 360 -33 4 -51
0 -75 -14z"/>
<path d="M4339 2936 c-203 -155 -206 -528 -5 -633 45 -23 125 -28 187 -9 163
47 243 279 167 485 -28 77 -107 154 -179 175 -83 25 -120 21 -170 -18z"/>
</g>
</svg>
